<?xml version="1.0" encoding="utf-8"?><svg xmlns="http://www.w3.org/2000/svg" xmlns:xlink="http://www.w3.org/1999/xlink"><symbol class="adownload__link" fill="none" viewBox="0 0 138 40" id="appstore" xmlns="http://www.w3.org/2000/svg"><rect width="138" height="40" fill="#000" rx="8"/><path fill="currentColor" d="M132.889.801c2.366 0 4.292 1.884 4.292 4.199v30c0 2.315-1.926 4.199-4.292 4.199H5.111C2.745 39.199.82 37.315.82 35V5C.82 2.685 2.745.801 5.111.801H132.89Zm0-.801H5.111C2.301 0 0 2.251 0 5v30c0 2.749 2.301 5 5.111 5H132.89c2.81 0 5.111-2.251 5.111-5V5c0-2.749-2.301-5-5.111-5Z"/><path fill="currentColor" d="M30.797 19.784c-.03-3.223 2.698-4.791 2.823-4.864-1.545-2.203-3.939-2.504-4.78-2.528-2.01-.207-3.961 1.177-4.985 1.177-1.045 0-2.622-1.157-4.322-1.123-2.188.033-4.234 1.272-5.357 3.196-2.316 3.923-.589 9.688 1.63 12.859 1.11 1.553 2.408 3.287 4.106 3.226 1.661-.067 2.282-1.036 4.286-1.036 1.986 0 2.569 1.036 4.3.997 1.783-.028 2.906-1.56 3.977-3.127 1.283-1.78 1.798-3.533 1.819-3.623-.042-.014-3.463-1.291-3.496-5.154ZM27.526 10.306c.894-1.093 1.505-2.58 1.335-4.089-1.293.056-2.91.875-3.841 1.944-.824.942-1.56 2.486-1.37 3.938 1.453.106 2.944-.717 3.876-1.793ZM54.837 31.504h-2.321l-1.272-3.909h-4.42l-1.212 3.909h-2.26l4.38-13.308h2.704l4.401 13.308Zm-3.976-5.549-1.15-3.475c-.122-.355-.35-1.191-.686-2.507h-.041c-.134.566-.35 1.402-.646 2.507l-1.13 3.475h3.653ZM66.099 26.588c0 1.632-.45 2.922-1.353 3.869-.807.843-1.81 1.264-3.007 1.264-1.292 0-2.22-.454-2.785-1.362h-.041v5.055h-2.18V25.067c0-1.026-.027-2.08-.08-3.16h1.916l.122 1.522h.04c.727-1.146 1.83-1.718 3.31-1.718 1.158 0 2.124.447 2.897 1.342.775.896 1.16 2.074 1.16 3.535Zm-2.22.078c0-.934-.215-1.704-.646-2.31-.472-.632-1.104-.948-1.898-.948-.537 0-1.026.176-1.462.523-.438.35-.724.807-.858 1.373-.068.264-.101.48-.101.65v1.6c0 .698.218 1.287.656 1.768.438.48 1.006.72 1.705.72.82 0 1.46-.31 1.917-.927.458-.62.687-1.435.687-2.45ZM77.381 26.588c0 1.632-.45 2.922-1.353 3.869-.807.843-1.81 1.264-3.007 1.264-1.292 0-2.22-.454-2.784-1.362h-.041v5.055h-2.18V25.067c0-1.026-.027-2.08-.08-3.16h1.916l.122 1.522h.041c.726-1.146 1.829-1.718 3.31-1.718 1.156 0 2.122.447 2.897 1.342.772.896 1.16 2.074 1.16 3.535Zm-2.22.078c0-.934-.216-1.704-.647-2.31-.471-.632-1.102-.948-1.896-.948a2.3 2.3 0 0 0-1.464.523c-.438.35-.723.807-.857 1.373-.066.264-.101.48-.101.65v1.6c0 .698.219 1.287.654 1.768.438.48 1.006.72 1.707.72.821 0 1.46-.31 1.917-.927.458-.62.687-1.435.687-2.45ZM89.995 27.772c0 1.132-.401 2.053-1.208 2.764-.886.777-2.12 1.165-3.705 1.165-1.464 0-2.638-.276-3.526-.829l.505-1.777c.957.566 2.006.85 3.15.85.821 0 1.46-.182 1.92-.544.456-.362.684-.848.684-1.454 0-.54-.188-.995-.565-1.364-.376-.369-1.002-.712-1.877-1.029-2.382-.869-3.572-2.142-3.572-3.816 0-1.094.417-1.991 1.252-2.689.833-.699 1.943-1.048 3.33-1.048 1.239 0 2.267.211 3.088.632l-.545 1.738c-.767-.408-1.633-.612-2.603-.612-.767 0-1.366.185-1.795.553-.363.329-.545.73-.545 1.205 0 .526.207.961.624 1.303.363.316 1.022.658 1.98 1.027 1.17.461 2.03 1 2.582 1.618.551.616.826 1.387.826 2.307ZM97.201 23.508h-2.402v4.659c0 1.185.423 1.777 1.271 1.777.39 0 .713-.033.969-.1l.06 1.62c-.43.157-.995.236-1.695.236-.86 0-1.533-.257-2.019-.77-.483-.514-.727-1.376-.727-2.587v-4.837h-1.43v-1.6h1.43v-1.757l2.14-.632v2.389h2.403v1.602ZM108.04 26.627c0 1.475-.432 2.686-1.292 3.633-.903.975-2.101 1.46-3.595 1.46-1.439 0-2.585-.466-3.44-1.4-.854-.934-1.281-2.113-1.281-3.534 0-1.487.44-2.705 1.322-3.652.88-.948 2.067-1.422 3.561-1.422 1.439 0 2.597.467 3.471 1.402.837.907 1.254 2.078 1.254 3.513Zm-2.262.069c0-.885-.193-1.644-.584-2.277-.457-.766-1.11-1.148-1.957-1.148-.876 0-1.541.383-1.998 1.148-.392.634-.585 1.405-.585 2.317 0 .885.193 1.644.585 2.276.471.766 1.129 1.148 1.979 1.148.832 0 1.485-.39 1.956-1.168.402-.645.604-1.412.604-2.296ZM115.124 23.783a3.871 3.871 0 0 0-.687-.06c-.767 0-1.36.284-1.777.85-.363.5-.545 1.133-.545 1.896v5.035h-2.178l.02-6.574c0-1.106-.027-2.113-.081-3.021h1.898l.08 1.836h.06c.23-.631.593-1.14 1.09-1.52a2.673 2.673 0 0 1 1.575-.514c.201 0 .383.014.545.039v2.033ZM124.871 26.252c0 .382-.026.704-.08.967h-6.538c.025.948.341 1.673.948 2.173.551.447 1.264.67 2.139.67.968 0 1.851-.15 2.645-.453l.342 1.48c-.928.396-2.024.593-3.289.593-1.521 0-2.715-.438-3.584-1.313-.866-.875-1.301-2.05-1.301-3.524 0-1.447.404-2.652 1.212-3.613.847-1.026 1.991-1.54 3.43-1.54 1.414 0 2.484.514 3.211 1.54.575.815.865 1.823.865 3.02Zm-2.079-.553c.015-.632-.127-1.178-.423-1.64-.377-.592-.957-.888-1.737-.888-.712 0-1.292.289-1.734.869-.363.46-.579 1.014-.645 1.658h4.539ZM45.547 9.718h.866c.795 0 1.27.364 1.27.98 0 .606-.501 1.02-1.244 1.02-.773 0-1.3-.374-1.35-.967H44c.057 1.15 1.024 1.907 2.435 1.907 1.384 0 2.412-.809 2.412-1.894 0-.853-.532-1.46-1.384-1.56v-.036c.703-.158 1.186-.747 1.186-1.459C48.65 6.703 47.753 6 46.456 6c-1.362 0-2.245.725-2.302 1.88h1.059c.048-.597.51-.966 1.213-.966.694 0 1.125.352 1.125.923 0 .571-.47.967-1.16.967h-.844v.914ZM51.545 11.748c-.474 0-.79-.242-.79-.624 0-.37.302-.606.83-.642l1.076-.066v.357c0 .562-.496.975-1.116.975Zm-.33.826c.598 0 1.183-.312 1.45-.817h.023v.742h1.054V9.291c0-.936-.751-1.546-1.907-1.546-1.186 0-1.929.624-1.977 1.494h1.015c.07-.387.4-.637.918-.637.54 0 .87.28.87.769v.334l-1.23.07c-1.134.07-1.771.567-1.771 1.393 0 .84.655 1.406 1.556 1.406ZM58.04 8.685v-.844h-3.16V12.5h1.09V8.685h2.07ZM61.551 7.762c-.677 0-1.204.343-1.468.884h-.021V7.84h-1.068v6.192h1.094v-2.307h.022c.255.523.782.848 1.459.848 1.169 0 1.916-.918 1.916-2.404 0-1.49-.752-2.408-1.934-2.408Zm-.334 3.916c-.68 0-1.133-.594-1.138-1.508.005-.905.457-1.507 1.138-1.507.708 0 1.147.589 1.147 1.507 0 .923-.44 1.508-1.147 1.508ZM64.86 14.231c1.064 0 1.578-.391 1.978-1.547l1.683-4.843h-1.152l-1.098 3.727h-.018L65.155 7.84h-1.196l1.657 4.663c.004.013-.061.246-.061.26-.124.43-.357.601-.81.601-.065 0-.258-.004-.316-.017v.865c.058.014.37.018.431.018ZM71.034 12.592c1.2 0 1.965-.58 1.965-1.481 0-.523-.308-.905-.892-1.046v-.035c.448-.119.729-.51.729-.98 0-.8-.642-1.305-1.815-1.305-1.09 0-1.802.54-1.894 1.42h1.037c.062-.361.378-.572.857-.572.505 0 .747.233.747.567 0 .378-.26.562-.756.562h-.641v.756h.663c.585 0 .88.193.88.615 0 .378-.317.637-.88.637-.51 0-.844-.215-.94-.615H69.03c.088.919.857 1.477 2.004 1.477ZM75.06 12.5l2.025-3.134h.036V12.5h1.072V7.841H77.12l-2.026 3.112h-.035V7.84h-1.073V12.5h1.073ZM83 7.841h-3.95v.844h1.432V12.5h1.086V8.685H83v-.844ZM85.782 8.593c.628 0 1.05.461 1.072 1.12H84.68c.044-.65.488-1.12 1.103-1.12Zm1.077 2.513c-.12.387-.506.642-1.016.642-.716 0-1.173-.5-1.173-1.248v-.066h3.256v-.356c0-1.415-.826-2.333-2.149-2.333-1.344 0-2.197.97-2.197 2.443 0 1.485.844 2.404 2.241 2.404 1.103 0 1.92-.607 2.061-1.486H86.86ZM92.826 8.584c.444 0 .69.207.69.571 0 .387-.264.59-.774.59h-.8V8.583h.884Zm-.018 1.854c.59 0 .892.225.892.66 0 .426-.285.659-.804.659h-.953v-1.319h.865ZM90.87 12.5h2.246c1.033 0 1.674-.522 1.674-1.344 0-.585-.413-1.015-1.024-1.095v-.035c.462-.079.818-.514.818-1.002 0-.738-.563-1.182-1.503-1.182h-2.21V12.5Z"/></symbol><symbol fill="none" viewBox="0 0 102 23" id="arrow" xmlns="http://www.w3.org/2000/svg"><path fill="#446DF6" d="M101.061 12.107a1.501 1.501 0 0 0 0-2.122L91.515.44a1.5 1.5 0 1 0-2.122 2.122l8.486 8.485-8.486 8.485a1.5 1.5 0 1 0 2.122 2.122l9.546-9.546ZM0 12.546h100v-3H0v3Z"/></symbol><symbol fill="none" viewBox="0 0 16 16" id="checkbox" xmlns="http://www.w3.org/2000/svg"><path d="M13.333 4 6 11.333 2.667 8" stroke="#446DF6" stroke-width="2" stroke-linecap="round" stroke-linejoin="round"/></symbol><symbol fill="none" viewBox="0 0 20 20" id="chevron" xmlns="http://www.w3.org/2000/svg"><path d="m12.5 5-5 5 5 5" stroke="currentColor" stroke-width="2" stroke-linecap="round" stroke-linejoin="round"/></symbol><symbol fill="none" viewBox="0 0 24 24" id="close" xmlns="http://www.w3.org/2000/svg"><path d="M18 6 6 18M6 6l12 12" stroke="#72727E" stroke-width="2" stroke-linecap="round" stroke-linejoin="round"/></symbol><symbol fill="none" viewBox="0 0 24 24" id="input-email" xmlns="http://www.w3.org/2000/svg"><path d="M16.197 3c3.201.01 5.793 2.621 5.803 5.846v1.46l-.006.098a.71.71 0 0 1-.702.616l-.009-.018-.11-.009a.706.706 0 0 1-.597-.704V8.846c-.024-2.426-1.97-4.387-4.379-4.411H7.803c-2.408.024-4.355 1.985-4.379 4.41v6.31c.024 2.426 1.97 4.386 4.379 4.41h8.394c2.409-.024 4.355-1.985 4.379-4.41a.718.718 0 0 1 .712-.642c.365 0 .671.276.712.642-.01 3.224-2.602 5.835-5.803 5.845H7.803C4.6 20.995 2.005 18.38 2 15.155v-6.31C2 5.618 4.598 3 7.803 3h8.394ZM6.294 8.387a.695.695 0 0 1 .518.156l4.157 3.314c.52.41 1.25.41 1.77 0l4.113-3.314h.009l.086-.06a.713.713 0 0 1 .913.167.717.717 0 0 1-.115 1.006l-4.113 3.324a2.841 2.841 0 0 1-3.582 0L5.926 9.656l-.076-.072a.726.726 0 0 1-.03-.934.697.697 0 0 1 .473-.263Z" fill="silver"/></symbol><symbol fill="none" viewBox="0 0 24 24" id="input-name" xmlns="http://www.w3.org/2000/svg"><path d="M20.22 19.425c.431 0 .78.353.78.787a.784.784 0 0 1-.78.788h-6.624a.783.783 0 0 1-.779-.788c0-.434.348-.787.78-.787h6.624ZM12.106 4.038c.979-1.264 2.693-1.388 4.073-.295l1.444 1.145c.63.5 1.062 1.157 1.213 1.852.168.776-.018 1.563-.523 2.214L9.702 20.06c-.436.562-1.09.89-1.798.899L4.582 21a.783.783 0 0 1-.769-.61l-.752-3.269a2.354 2.354 0 0 1 .434-1.979l1.13-1.458a.772.772 0 0 1 1.094-.134.793.793 0 0 1 .132 1.106l-1.13 1.458a.771.771 0 0 0-.142.65l.61 2.652 2.695-.033a.756.756 0 0 0 .59-.295l8.611-11.105c.22-.283.296-.588.228-.907-.074-.337-.305-.674-.652-.948l-1.444-1.146c-.559-.44-1.347-.667-1.885.029l-1.138 1.466L14 7.94c.335.271.39.768.12 1.106a.772.772 0 0 1-1.095.123l-1.792-1.452-2.946 3.8a.772.772 0 0 1-1.095.133.795.795 0 0 1-.131-1.106l5.044-6.506Z" fill="silver"/></symbol><symbol fill="none" viewBox="0 0 24 24" id="input-tel" xmlns="http://www.w3.org/2000/svg"><path d="M4.306 10.585a.753.753 0 0 1 1.043.193c2.595 3.767 7.335 8.008 10.352 9.261 1.22.567 2.128.602 2.804.117.527-.319 2.024-1.806 1.997-2.58-.01-.09-.113-.262-.29-.442-.576-.59-2.51-2.053-2.913-2.204-.32-.068-.651.126-1.157.444l-.256.16a.75.75 0 0 1-.774-1.285l.23-.143c.56-.353 1.334-.835 2.306-.633.766.16 3.175 2.14 3.636 2.611.434.444.674.917.715 1.403.065 1.842-2.402 3.767-2.685 3.93-.538.387-1.17.583-1.88.583-.705 0-1.49-.194-2.338-.59-3.265-1.355-8.204-5.75-10.982-9.783a.75.75 0 0 1 .192-1.042ZM6.303 2l.176.003c.516.043.988.283 1.431.714.472.461 2.454 2.872 2.614 3.635.17.82-.198 1.46-.467 1.929-.265.46-.357.657-.266.906.668 1.636 1.703 2.973 3.064 3.945a.75.75 0 0 1-.873 1.22c-1.595-1.14-2.802-2.696-3.592-4.626-.347-.955.065-1.67.367-2.193.226-.392.35-.626.298-.876-.14-.36-1.603-2.29-2.193-2.865-.182-.18-.353-.284-.48-.294-.716-.017-2.18 1.398-2.512 1.949-.515.708-.479 1.614.074 2.829a.75.75 0 0 1-1.365.62c-.787-1.726-.772-3.167.044-4.28.304-.508 2.215-2.72 3.856-2.613L6.303 2Z" fill="silver"/></symbol><symbol fill="none" viewBox="0 0 120 23" id="logo" xmlns="http://www.w3.org/2000/svg"><path fill="currentColor" d="M11.202 9.34h4.966c1.016.037 1.636.3 1.862.79.188.357.282.884.282 1.58v6.207c0 .602-.263 1.176-.79 1.721-1.58 1.637-3.95 2.455-7.11 2.455-2.803 0-5.24-1.053-7.308-3.16C1.034 16.807 0 14.249 0 11.258c0-2.99 1.053-5.483 3.16-7.477C5.267 1.768 7.75.761 10.61.761c2.219 0 4.316.734 6.291 2.202.508.376.762.8.762 1.27 0 .45-.216.978-.649 1.58-.733.996-1.401 1.495-2.003 1.495-.357 0-.931-.254-1.721-.762-.79-.527-1.73-.79-2.822-.79-1.43 0-2.7.508-3.809 1.524-1.11.997-1.665 2.313-1.665 3.95 0 1.618.565 3 1.693 4.148 1.129 1.128 2.408 1.693 3.838 1.693 1.034 0 1.965-.17 2.793-.508v-3.076h-2.23c-.582 0-.996-.075-1.24-.225a1.053 1.053 0 0 1-.48-.65c-.075-.3-.113-.695-.113-1.184 0-.508.037-.913.113-1.214.094-.3.254-.508.48-.62.338-.17.79-.254 1.354-.254ZM34.9 12.613c0 1.147-.292 2.003-.875 2.567-.564.546-1.195.819-1.89.819h-6.688c0 .526.31.968.931 1.326.621.357 1.242.536 1.863.536 1.09 0 1.947-.113 2.567-.339l.31-.113c.452-.207.828-.31 1.13-.31.601 0 1.119.423 1.551 1.27.245.508.367.94.367 1.298 0 1.674-2.003 2.51-6.01 2.51-1.392 0-2.634-.234-3.725-.704-1.072-.49-1.909-1.13-2.51-1.92-1.186-1.523-1.779-3.225-1.779-5.106 0-2.37.762-4.261 2.286-5.672 1.543-1.43 3.461-2.144 5.756-2.144 2.615 0 4.534.922 5.756 2.765.64.978.96 2.05.96 3.217Zm-5.954.818c.715 0 1.072-.301 1.072-.903 0-.433-.17-.78-.508-1.044-.32-.263-.79-.395-1.41-.395-.603 0-1.204.254-1.806.762-.602.489-.903 1.015-.903 1.58h3.555ZM45.099 11.935l-1.834-.113v3.894c0 .508.075.875.226 1.1.169.227.47.34.903.34.451 0 .79.018 1.015.056.245.019.499.103.762.254.433.244.65.874.65 1.89 0 1.185-.264 1.91-.79 2.173a3.005 3.005 0 0 1-.763.254c-.207.019-.517.028-.93.028-1.957 0-3.443-.442-4.459-1.326-1.016-.884-1.524-2.38-1.524-4.486v-4.177a7.42 7.42 0 0 1-1.156.085c-.414 0-.762-.16-1.044-.48-.264-.32-.395-.865-.395-1.636 0-.771.047-1.326.14-1.665.095-.357.226-.611.396-.762.3-.244.677-.366 1.128-.366l.931.112V4.204c0-.432.01-.752.029-.96.037-.206.131-.432.282-.676.244-.47.969-.706 2.172-.706 1.28 0 2.041.348 2.286 1.044.094.301.141.78.141 1.44V7.11c.828-.075 1.448-.112 1.862-.112.433 0 .753.018.96.056.225.019.48.103.761.254.49.245.734.969.734 2.173 0 1.185-.254 1.909-.762 2.172a3.01 3.01 0 0 1-.762.254c-.206.019-.526.028-.959.028ZM73.114 1.242c1.26.451 1.89 1.053 1.89 1.805 0 .245-.112.706-.338 1.383l-5.417 15.66a2.9 2.9 0 0 1-.198.48c-.094.188-.348.442-.762.761-.395.301-.875.452-1.439.452-.545 0-1.025-.15-1.439-.452-.395-.32-.658-.63-.79-.93l-3.301-9.735-3.189 9.424a2.438 2.438 0 0 1-.254.48 3.3 3.3 0 0 1-.451.564c-.433.433-.95.649-1.552.649-.602 0-1.1-.141-1.495-.423-.377-.283-.63-.565-.762-.847l-.198-.423-5.445-15.66c-.207-.62-.31-1.082-.31-1.383 0-.752.63-1.345 1.89-1.777.545-.188 1.034-.282 1.467-.282.451 0 .79.15 1.016.451.244.301.46.762.649 1.383l3.103 9.424 3.076-9.283c.263-.79.743-1.336 1.439-1.637.301-.132.687-.197 1.157-.197.489 0 .94.16 1.354.48.414.3.677.601.79.902l3.245 9.791 3.104-9.48c.15-.433.273-.753.367-.96.094-.207.263-.404.508-.592.263-.207.583-.31.959-.31s.818.093 1.326.282ZM84.223 8.521c.113-1.053.856-1.58 2.23-1.58.733 0 1.278.057 1.636.17.357.112.602.31.733.592.15.282.235.536.254.762.038.207.057.527.057.96V19.3c0 .433-.02.762-.057.987-.019.207-.094.452-.225.734-.264.49-.913.734-1.947.734-1.016 0-1.703-.123-2.06-.367-.339-.264-.536-.64-.593-1.129-.696.997-1.862 1.496-3.499 1.496-1.617 0-3.122-.743-4.514-2.23-1.392-1.485-2.088-3.207-2.088-5.163 0-1.975.696-3.696 2.088-5.164 1.41-1.486 2.953-2.229 4.627-2.229.64 0 1.223.113 1.75.339.526.226.893.442 1.1.649.207.188.376.376.508.564Zm-5.135 5.87c0 .62.244 1.184.733 1.692a2.42 2.42 0 0 0 1.778.734c.696 0 1.27-.254 1.721-.762.47-.508.706-1.063.706-1.665 0-.62-.226-1.194-.678-1.721-.432-.527-1.025-.79-1.777-.79-.734 0-1.336.263-1.806.79-.451.527-.677 1.1-.677 1.721ZM91.495 20.485c-.358-.226-.537-.583-.537-1.072 0-.49.358-1.232 1.073-2.23.206-.32.536-.48.987-.48.47 0 1.1.236 1.89.706.79.452 1.505.678 2.145.678 1.148 0 1.721-.226 1.721-.678 0-.357-.63-.62-1.89-.79-1.185-.169-2.361-.611-3.527-1.326-.546-.338-.997-.865-1.355-1.58-.357-.734-.536-1.599-.536-2.596 0-2.972 2.041-4.458 6.123-4.458 1.336 0 2.709.32 4.12.96.658.3.987.677.987 1.128 0 .451-.207 1.006-.62 1.665-.414.658-.838.987-1.27.987-.226 0-.649-.14-1.27-.423a4.594 4.594 0 0 0-1.975-.423c-1.11 0-1.665.207-1.665.62 0 .565.64.932 1.919 1.101 1.241.132 2.445.49 3.612 1.072.545.264.996.724 1.354 1.383.376.64.564 1.448.564 2.426 0 .979-.188 1.816-.564 2.512a3.507 3.507 0 0 1-1.524 1.523c-1.204.583-2.718.875-4.543.875-1.805 0-3.545-.527-5.22-1.58ZM113.426 6.998c1.881 0 3.442.714 4.684 2.144 1.26 1.43 1.89 3.179 1.89 5.248v4.966c0 .433-.019.762-.056.988-.019.207-.104.451-.254.733-.245.49-.969.734-2.173.734-1.147 0-1.862-.244-2.144-.734a2.55 2.55 0 0 1-.283-.761 13.827 13.827 0 0 1-.028-1.016v-4.938c0-.771-.216-1.373-.649-1.806-.432-.432-.987-.649-1.665-.649a2.69 2.69 0 0 0-1.749.621c-.508.395-.799.846-.875 1.354v5.474c0 .433-.018.762-.056.988-.019.207-.104.451-.254.733-.245.49-.969.734-2.173.734-1.185 0-1.909-.254-2.172-.762a3.065 3.065 0 0 1-.254-.733 12.126 12.126 0 0 1-.028-.988V2.455c0-.433.009-.753.028-.96.037-.225.122-.47.254-.733.263-.508.997-.762 2.201-.762 1.185 0 1.899.254 2.144.762.15.282.235.536.254.762.038.207.056.526.056.959v6.236c.941-1.148 2.041-1.721 3.302-1.721Z"/></symbol><symbol viewBox="0 0 30 30" id="partner1" xmlns="http://www.w3.org/2000/svg"><path fill="#446DF6" d="M19.28 0C24.1 0 26.987 2.927 27 7.815v14.37C27 27.073 24.126 30 19.293 30H15.01a1.094 1.094 0 0 1-.966-1.093c0-.56.416-1.031.966-1.092h4.271c3.684 0 5.539-1.895 5.539-5.63V7.815c0-3.736-1.855-5.63-5.539-5.63H7.707c-3.684 0-5.552 1.894-5.552 5.63v14.37c0 3.736 1.868 5.63 5.552 5.63.55.061.965.532.965 1.092S8.256 29.94 7.707 30C2.887 30 0 27.073 0 22.185V7.815C0 2.914 2.887 0 7.707 0H19.28Zm-.392 20.265c.592 0 1.071.486 1.071 1.086 0 .6-.48 1.086-1.07 1.086H8.072A1.079 1.079 0 0 1 7 21.351c0-.6.48-1.086 1.072-1.086h10.815Zm0-6.358a1.08 1.08 0 0 1 1.037.509c.221.357.221.81 0 1.168a1.08 1.08 0 0 1-1.037.509H8.073A1.094 1.094 0 0 1 7.107 15c0-.56.416-1.031.966-1.093h10.815ZM12.2 7.563c.55.061.966.532.966 1.093 0 .56-.416 1.03-.966 1.092H8.086a1.094 1.094 0 0 1-.966-1.092c0-.56.416-1.032.966-1.093H12.2Z"/></symbol><symbol fill="none" viewBox="0 0 27 30" id="partner2" xmlns="http://www.w3.org/2000/svg"><path d="M19.187.001c.568.036 1.006.523.991 1.102v1.552C24.691 3.093 27 5.587 27 10.072v12.405C27 27.466 24.157 30 18.56 30H8.44C2.842 30 0 27.466 0 22.477V10.072C0 7.086 1.017 4.95 3.104 3.703l.147-.083c.302-.142.657-.129.952.043.344.2.547.58.525.982a1.06 1.06 0 0 1-.632.916c-1.383.822-2.035 2.255-2.035 4.51v.399h19.03c.57 0 1.03.469 1.03 1.048a1.04 1.04 0 0 1-1.03 1.048H2.061v9.911c0 3.808 1.852 5.387 6.378 5.413h10.122c4.46 0 6.365-1.618 6.365-5.426V10.058c0-3.317-1.448-4.922-4.748-5.307V5.76c-.076.537-.538.93-1.072.909a1.052 1.052 0 0 1-1.002-.989V1.01l.02-.166c.042-.218.151-.417.314-.569a1.02 1.02 0 0 1 .749-.274Zm.593 21.294.167.011c.284.036.552.166.758.374.247.25.386.589.386.943 0 .733-.584 1.327-1.304 1.327-.72 0-1.304-.594-1.304-1.327s.584-1.327 1.304-1.327h-.006Zm-6.254.001.164.01a1.32 1.32 0 0 1 1.14 1.317c0 .733-.584 1.327-1.304 1.327-.72 0-1.304-.594-1.304-1.327s.584-1.327 1.304-1.327Zm-6.254 0 .166.01c.285.036.552.166.758.374.247.25.387.589.387.943 0 .733-.584 1.327-1.305 1.327-.72 0-1.304-.594-1.304-1.327s.584-1.327 1.304-1.327h-.006Zm12.508-5.373.167.01c.284.035.552.166.758.374.247.249.386.588.386.943 0 .732-.584 1.326-1.304 1.326-.72 0-1.304-.594-1.304-1.326 0-.733.584-1.327 1.304-1.327h-.006Zm-6.254 0 .164.01a1.32 1.32 0 0 1 1.14 1.317c0 .732-.584 1.326-1.304 1.326-.72 0-1.304-.594-1.304-1.326 0-.733.584-1.327 1.304-1.327Zm-6.254 0 .166.01c.285.035.552.166.758.374.247.249.387.588.387.943 0 .732-.584 1.326-1.305 1.326-.72 0-1.304-.594-1.304-1.326 0-.733.584-1.327 1.304-1.327h-.006ZM7.859.16c.53 0 .977.406 1.037.943v1.446h5.895c.57 0 1.03.47 1.03 1.048a1.04 1.04 0 0 1-1.03 1.048H8.87v1.048c0 .28-.11.55-.307.746a1.021 1.021 0 0 1-.737.302l-.15-.015a1.044 1.044 0 0 1-.854-1.046V1.103L6.85.946C6.97.488 7.38.16 7.859.16Z" fill="#446DF6"/></symbol><symbol fill="none" viewBox="0 0 30 30" id="partner3" xmlns="http://www.w3.org/2000/svg"><path d="M15.01 0c2.427 0 4.844.599 6.992 1.731 7.313 3.859 10.125 12.947 6.27 20.263C25.641 26.982 20.462 30 14.992 30c-1.069 0-2.148-.115-3.222-.353a1.125 1.125 0 0 1-.853-1.34 1.125 1.125 0 0 1 1.34-.853c5.587 1.242 11.354-1.44 14.027-6.508 3.278-6.219.887-13.948-5.33-17.228a12.786 12.786 0 0 0-5.946-1.472c-7.044 0-12.763 5.72-12.763 12.752a12.744 12.744 0 0 0 1.443 5.899l.288.563c.353.66.431 1.481.203 2.224a25.674 25.674 0 0 0-.796 2.448c.843-.254 1.872-.627 2.616-.898l.305-.11a1.12 1.12 0 0 1 1.437.674 1.123 1.123 0 0 1-.674 1.438l-.3.11c-1.113.402-2.635.956-3.662 1.186-.088.018-.181.03-.267.028-.69 0-1.11-.28-1.341-.514-.355-.361-.524-.867-.505-1.504a1.15 1.15 0 0 1 .03-.22c.266-1.137.614-2.271 1.034-3.37a.704.704 0 0 0-.074-.463l-.29-.562A15.01 15.01 0 0 1 0 14.997C0 6.727 6.726 0 14.993 0h.017Zm-.017 13.214c.985 0 1.784.801 1.784 1.784s-.8 1.784-1.784 1.784-1.783-.8-1.783-1.784c0-.983.8-1.784 1.783-1.784Zm6.605 0c.984 0 1.784.801 1.784 1.784s-.8 1.784-1.784 1.784-1.783-.8-1.783-1.784c0-.983.8-1.784 1.783-1.784Zm-13.21 0a1.784 1.784 0 1 1-1.783 1.784c0-.984.8-1.783 1.784-1.783Z" fill="#446DF6"/></symbol><symbol fill="none" viewBox="0 0 30 30" id="partner4" xmlns="http://www.w3.org/2000/svg"><path d="M23.247 29.88a1.005 1.005 0 0 1-.528-.136l-7.707-4.059-6.786 3.654a2.282 2.282 0 0 1-3.093-.92l-.023-.041a2.46 2.46 0 0 1-.237-1.5l1.32-7.791L.676 13.5a2.401 2.401 0 0 1 0-3.34 2.24 2.24 0 0 1 1.32-.677l7.565-1.15 3.364-7.009a2.273 2.273 0 0 1 4.131 0l3.38 7.034 7.59 1.162c.613.092 1.164.43 1.524.936.672.966.57 2.271-.243 3.122l-5.492 5.52.765 4.198a1.173 1.173 0 0 1-.937 1.35 1.137 1.137 0 0 1-1.32-.92l-.779-4.198c-.13-.77.114-1.555.66-2.112l5.505-5.559-7.59-1.177a2.28 2.28 0 0 1-1.73-1.35l-3.377-7.004-3.42 7.115a2.276 2.276 0 0 1-1.73 1.35L2.298 11.94l5.464 5.55c.545.547.79 1.323.66 2.083l-1.32 7.791 6.785-3.639a2.207 2.207 0 0 1 2.164 0l7.697 4.06c.47.256.708.797.58 1.318-.117.52-.576.89-1.108.9l.027-.125Z" fill="#446DF6"/></symbol><symbol fill="none" viewBox="0 0 30 29" id="partner5" xmlns="http://www.w3.org/2000/svg"><path d="M21.321 0C26.107 0 30 3.982 30 8.878v10.744c0 4.896-3.893 8.878-8.679 8.878-.552 0-1-.458-1-1.023s.448-1.023 1-1.023c3.683 0 6.679-3.064 6.679-6.832v-8.575h-4.925c-1.618.002-2.936 1.35-2.938 3.006.002 1.656 1.32 3.004 2.938 3.005h2.046c.552 0 1 .459 1 1.023 0 .565-.448 1.024-1 1.024h-2.046c-2.722-.002-4.936-2.268-4.938-5.052.002-2.785 2.216-5.05 4.938-5.052H28v-.123c0-3.768-2.996-6.832-6.679-6.832H8.677c-2.968 0-5.458 2.003-6.326 4.746h13.181c.552 0 1 .459 1 1.024 0 .566-.448 1.023-1 1.023H2.004L2 8.879v10.743c0 3.768 2.995 6.832 6.677 6.832h6.362c.552 0 1 .458 1 1.023s-.448 1.023-1 1.023H8.677C3.892 28.5 0 24.518 0 19.622V8.878C0 3.982 3.892 0 8.677 0h12.644Zm2.425 12.938c.552 0 1 .458 1 1.023 0 .564-.448 1.023-1 1.023h-.454c-.553 0-1-.459-1-1.023 0-.565.447-1.024 1-1.024h.454Z" fill="#446DF6"/></symbol><symbol class="odownload__link" fill="none" viewBox="0 0 138 40" id="playmarket" xmlns="http://www.w3.org/2000/svg"><rect width="138" height="40" fill="#000" rx="8"/><path fill="currentColor" d="M132.628.801c2.362 0 4.284 1.884 4.284 4.199v30c0 2.315-1.922 4.199-4.284 4.199H5.101C2.74 39.199.817 37.315.817 35V5C.817 2.685 2.74.801 5.101.801h127.527Zm0-.801H5.101C2.297 0 0 2.251 0 5v30c0 2.749 2.297 5 5.101 5h127.527c2.805 0 5.101-2.251 5.101-5V5c0-2.749-2.296-5-5.101-5Z"/><path fill="currentColor" d="M69.512 21.752c-2.396 0-4.354 1.788-4.354 4.254 0 2.446 1.958 4.253 4.354 4.253 2.401 0 4.36-1.807 4.36-4.253 0-2.466-1.959-4.254-4.36-4.254Zm0 6.832c-1.315 0-2.446-1.064-2.446-2.578 0-1.534 1.131-2.579 2.446-2.579 1.315 0 2.451 1.045 2.451 2.58 0 1.513-1.136 2.577-2.45 2.577Zm-9.5-6.832c-2.4 0-4.353 1.788-4.353 4.254 0 2.446 1.952 4.253 4.354 4.253 2.4 0 4.354-1.807 4.354-4.253 0-2.466-1.954-4.254-4.354-4.254Zm0 6.832c-1.315 0-2.45-1.064-2.45-2.578 0-1.534 1.135-2.579 2.45-2.579 1.316 0 2.447 1.045 2.447 2.58 0 1.513-1.132 2.577-2.446 2.577ZM48.71 23.056v1.808h4.403c-.129 1.01-.473 1.752-1 2.27-.644.625-1.645 1.318-3.403 1.318-2.71 0-4.832-2.143-4.832-4.8 0-2.656 2.122-4.8 4.832-4.8 1.465 0 2.531.562 3.318 1.29l1.3-1.275c-1.101-1.03-2.565-1.82-4.618-1.82-3.716 0-6.84 2.963-6.84 6.605 0 3.643 3.124 6.607 6.84 6.607 2.008 0 3.517-.645 4.703-1.855 1.215-1.192 1.594-2.867 1.594-4.22 0-.42-.036-.805-.1-1.128H48.71Zm46.223 1.401c-.358-.95-1.464-2.705-3.716-2.705-2.232 0-4.09 1.724-4.09 4.254 0 2.383 1.84 4.253 4.304 4.253a4.322 4.322 0 0 0 3.617-1.885l-1.48-.967c-.493.708-1.165 1.177-2.137 1.177-.965 0-1.658-.434-2.101-1.29l5.803-2.353-.2-.484Zm-5.917 1.417a2.355 2.355 0 0 1 2.266-2.48c.758 0 1.4.37 1.615.902l-3.881 1.578ZM84.298 30h1.907V17.5h-1.907V30Zm-3.125-7.3h-.064c-.428-.498-1.245-.948-2.28-.948-2.174 0-4.16 1.87-4.16 4.268 0 2.384 1.986 4.239 4.16 4.239 1.035 0 1.852-.454 2.28-.967h.064v.61c0 1.627-.886 2.5-2.316 2.5-1.165 0-1.888-.825-2.187-1.518l-1.659.678c.478 1.128 1.745 2.515 3.846 2.515 2.237 0 4.125-1.29 4.125-4.428V22.01h-1.809v.689Zm-2.182 5.884c-1.314 0-2.415-1.08-2.415-2.564 0-1.499 1.1-2.593 2.415-2.593 1.296 0 2.317 1.094 2.317 2.593 0 1.485-1.021 2.564-2.317 2.564ZM103.864 17.5h-4.563V30h1.903v-4.736h2.66c2.113 0 4.186-1.5 4.186-3.883 0-2.382-2.078-3.881-4.186-3.881Zm.05 6.025h-2.71v-4.286h2.71a2.19 2.19 0 0 1 2.232 2.142c0 .968-.811 2.144-2.232 2.144Zm11.762-1.796c-1.375 0-2.805.595-3.392 1.913l1.688.694c.363-.694 1.032-.919 1.738-.919.987 0 1.988.582 2.004 1.608v.131c-.345-.195-1.082-.484-1.989-.484-1.818 0-3.671.982-3.671 2.813 0 1.675 1.489 2.754 3.164 2.754 1.28 0 1.987-.567 2.431-1.225h.065v.966h1.837v-4.795c0-2.216-1.688-3.456-3.875-3.456Zm-.23 6.85c-.622 0-1.489-.303-1.489-1.06 0-.967 1.081-1.338 2.017-1.338.838 0 1.231.181 1.74.42-.15 1.158-1.166 1.978-2.268 1.978Zm10.8-6.577-2.187 5.42h-.065l-2.261-5.42h-2.052l3.398 7.573-1.939 4.214h1.988l5.235-11.787h-2.117ZM109.095 30h1.908V17.5h-1.908V30Z"/><path d="M10.646 7.539c-.3.307-.473.786-.473 1.406V31.06c0 .62.174 1.099.473 1.406l.074.068 12.643-12.388v-.292L10.72 7.466l-.074.073Z" fill="url(#oa)"/><path d="m27.573 24.277-4.21-4.13v-.293l4.215-4.132.094.054 4.992 2.784c1.424.79 1.424 2.09 0 2.885l-4.992 2.779-.1.053Z" fill="url(#ob)"/><path d="M27.671 24.224 23.362 20 10.645 32.466c.473.488 1.245.547 2.122.059l14.904-8.301Z" fill="url(#oc)"/><path d="M27.671 15.776 12.767 7.475c-.877-.482-1.649-.424-2.122.064L23.362 20l4.31-4.224Z" fill="url(#od)"/><path fill="currentColor" d="M49.44 11.45v.948h-4.654v-.949h4.654Zm-4.325 0v2.517h-1.144l-.057-2.518h1.201Zm5.224 0-.092 2.522h-1.118v-2.523h1.21ZM48.69 6v.954h-3.009V6h3.009Zm.89 0v6.398H48.38V6h1.201Zm-4.092 0h1.206l-.162 2.602a8.27 8.27 0 0 1-.131 1.12c-.062.328-.138.62-.229.875-.09.255-.191.479-.302.672a3.019 3.019 0 0 1-.72.861 4.7 4.7 0 0 1-.372.268h-.671v-.949h.29c.084-.073.173-.176.267-.307.096-.132.188-.307.276-.523.09-.217.17-.491.237-.822.067-.331.115-.73.145-1.195L45.488 6ZM50.98 10.07v-.093c0-.349.049-.67.148-.962.1-.296.245-.553.434-.77.19-.216.423-.385.698-.505.275-.123.588-.184.939-.184.356 0 .672.061.947.184.278.12.511.289.702.506.19.216.334.473.434.769.1.293.149.613.149.962v.092c0 .346-.05.667-.15.963-.099.293-.243.55-.433.769-.19.217-.423.385-.698.505-.275.12-.589.18-.943.18-.35 0-.665-.06-.943-.18a1.947 1.947 0 0 1-.702-.505 2.285 2.285 0 0 1-.434-.77c-.1-.295-.149-.616-.149-.962Zm1.157-.093v.092c0 .208.02.403.062.585.04.181.103.341.188.479a.945.945 0 0 0 .329.325.998.998 0 0 0 .491.114.963.963 0 0 0 .483-.114.945.945 0 0 0 .329-.325c.087-.138.152-.298.193-.48a2.65 2.65 0 0 0 .061-.584v-.092c0-.205-.02-.397-.061-.576a1.495 1.495 0 0 0-.193-.479.922.922 0 0 0-.82-.452.91.91 0 0 0-.812.452 1.56 1.56 0 0 0-.188.48c-.041.178-.062.37-.062.575ZM58.4 11.572c.164 0 .31-.032.439-.096a.769.769 0 0 0 .307-.273.767.767 0 0 0 .127-.409h1.092c-.006.323-.097.611-.272.866-.176.255-.41.457-.702.607-.29.146-.614.22-.973.22-.366 0-.685-.062-.957-.185a1.863 1.863 0 0 1-.68-.514 2.275 2.275 0 0 1-.403-.765c-.088-.29-.132-.6-.132-.932v-.14c0-.331.044-.642.132-.932.09-.29.225-.545.404-.765.18-.22.408-.39.68-.514a2.29 2.29 0 0 1 .951-.184c.383 0 .72.074 1.009.224.292.15.52.36.684.633.167.272.253.593.259.962h-1.092a1.056 1.056 0 0 0-.114-.457.839.839 0 0 0-.298-.325.855.855 0 0 0-.47-.123.912.912 0 0 0-.491.123.85.85 0 0 0-.303.338c-.07.14-.12.299-.149.475-.026.173-.04.354-.04.545v.14c0 .194.014.378.04.554.03.176.08.334.15.475a.864.864 0 0 0 .302.33.93.93 0 0 0 .5.122ZM63.62 7.644v4.754h-1.163V7.644h1.162Zm1.543 0v.905h-4.224v-.905h4.224ZM67.465 11.871l1.272-4.227h1.242l-1.904 5.475c-.044.117-.1.245-.171.383a1.625 1.625 0 0 1-.272.39 1.302 1.302 0 0 1-.43.308c-.17.08-.376.119-.618.119a1.61 1.61 0 0 1-.28-.022 3.485 3.485 0 0 1-.26-.057v-.87c.03.003.063.004.101.004a1.463 1.463 0 0 0 .526-.057.554.554 0 0 0 .268-.19c.07-.084.129-.195.176-.333l.35-.923Zm-.627-4.227 1.075 3.502.188 1.226-.798.145-1.715-4.873h1.25ZM73.904 7.644v.918h-2.32v-.918h2.32Zm-2.013 0v4.754h-1.163V7.644h1.163Zm2.89 0v4.754h-1.167V7.644h1.167ZM79.254 9.595v.91H76.82v-.91h2.434Zm-2.07-1.951v4.754h-1.162V7.644h1.162Zm2.882 0v4.754h-1.167V7.644h1.167ZM81.092 10.07v-.093c0-.349.05-.67.149-.962.1-.296.244-.553.434-.77.19-.216.423-.385.698-.505.274-.123.587-.184.938-.184.357 0 .673.061.947.184.278.12.512.289.702.506.19.216.335.473.434.769.1.293.15.613.15.962v.092c0 .346-.05.667-.15.963-.099.293-.244.55-.434.769-.19.217-.422.385-.697.505-.275.12-.59.18-.943.18-.351 0-.665-.06-.943-.18a1.946 1.946 0 0 1-.702-.505 2.282 2.282 0 0 1-.434-.77c-.1-.295-.15-.616-.15-.962Zm1.158-.093v.092c0 .208.02.403.061.585.041.181.104.341.189.479a.945.945 0 0 0 .329.325.998.998 0 0 0 .49.114.963.963 0 0 0 .483-.114.945.945 0 0 0 .33-.325c.087-.138.151-.298.192-.48.041-.18.062-.376.062-.584v-.092c0-.205-.02-.397-.062-.576a1.498 1.498 0 0 0-.193-.479.922.922 0 0 0-.82-.452.909.909 0 0 0-.811.452 1.563 1.563 0 0 0-.189.48c-.04.178-.061.37-.061.575ZM91.315 10.386h-1.504l-.01-.787h1.238c.184 0 .335-.019.451-.057a.499.499 0 0 0 .26-.171.441.441 0 0 0 .087-.277.517.517 0 0 0-.053-.242.423.423 0 0 0-.158-.171.724.724 0 0 0-.258-.097 1.626 1.626 0 0 0-.36-.035h-.785v3.85h-1.162V7.643h1.947c.307 0 .583.027.829.083.246.053.455.133.627.242.173.108.304.246.395.413.093.164.14.357.14.58a.912.912 0 0 1-.096.413c-.065.129-.16.243-.285.343-.126.1-.281.181-.465.246-.184.061-.395.1-.632.114l-.206.308Zm0 2.012h-1.816l.43-.905h1.386c.17 0 .31-.02.421-.061a.497.497 0 0 0 .246-.19.52.52 0 0 0 .083-.298.534.534 0 0 0-.079-.295.464.464 0 0 0-.241-.193 1.096 1.096 0 0 0-.43-.07h-1.197l.008-.787h1.39l.308.312c.316.02.577.085.785.194.208.105.363.24.465.404a.972.972 0 0 1 .153.531c0 .226-.042.424-.127.594-.085.17-.209.312-.373.426a1.851 1.851 0 0 1-.6.255 3.56 3.56 0 0 1-.812.083Z"/><defs><linearGradient id="oa" x1="22.241" y1="31.29" x2="5.462" y2="14.172" gradientUnits="userSpaceOnUse"><stop offset="1" stop-color="#00A0FF"/><stop offset=".007" stop-color="#00A1FF"/><stop offset=".26" stop-color="#00BEFF"/><stop offset=".512" stop-color="#00D2FF"/><stop offset=".76" stop-color="#00DFFF"/><stop offset="1" stop-color="#00E3FF"/></linearGradient><linearGradient id="ob" x1="34.519" y1="19.998" x2="9.833" y2="19.998" gradientUnits="userSpaceOnUse"><stop offset="1" stop-color="#FFE000"/><stop offset=".409" stop-color="#FFBD00"/><stop offset=".775" stop-color="orange"/><stop offset="1" stop-color="#FF9C00"/></linearGradient><linearGradient id="oc" x1="25.328" y1="17.704" x2="2.574" y2="-5.51" gradientUnits="userSpaceOnUse"><stop offset="1" stop-color="#FF3A44"/><stop offset="1" stop-color="#C31162"/></linearGradient><linearGradient id="od" x1="7.444" y1="39.824" x2="17.605" y2="29.458" gradientUnits="userSpaceOnUse"><stop offset="1" stop-color="#32A071"/><stop offset=".069" stop-color="#2DA771"/><stop offset=".476" stop-color="#15CF74"/><stop offset=".801" stop-color="#06E775"/><stop offset="1" stop-color="#00F076"/></linearGradient></defs></symbol><symbol fill="none" viewBox="0 0 30 29" id="start1" xmlns="http://www.w3.org/2000/svg"><path d="M23.33 7.047c3.678 0 6.67 3.11 6.67 6.934v7.6c0 3.814-2.985 6.919-6.655 6.919H11.924c-.638 0-1.154-.54-1.154-1.2 0-.665.516-1.203 1.154-1.203h11.42c2.396 0 4.346-2.026 4.346-4.516v-7.6c0-2.5-1.956-4.533-4.36-4.533h-1.397c-.637 0-1.153-.536-1.153-1.2 0-.663.516-1.201 1.153-1.201h1.397Zm-15.263 0c.637 0 1.155.539 1.155 1.201 0 .663-.518 1.201-1.155 1.201H6.655c-2.395 0-4.345 2.027-4.345 4.516v7.6c0 2.5 1.956 4.533 4.36 4.533.638 0 1.155.538 1.155 1.2 0 .663-.517 1.201-1.155 1.201C2.992 28.5 0 25.39 0 21.565v-7.6c0-3.814 2.985-6.917 6.655-6.917h1.412ZM15 0c.637 0 1.156.515 1.156 1.15v17.932c0 .466-.282.885-.715 1.063-.432.177-.93.077-1.26-.251l-4.362-4.362a1.147 1.147 0 0 1 .003-1.625 1.16 1.16 0 0 1 1.633.003l2.39 2.388V1.15C13.845.515 14.362 0 15 0Zm3.542 13.913a1.16 1.16 0 0 1 1.633-.01c.455.445.458 1.172.01 1.626l-1.093 1.1a1.157 1.157 0 0 1-1.975-.809c0-.29.11-.584.334-.809l1.09-1.098Z" fill="#446DF6"/></symbol><symbol fill="none" viewBox="0 0 26 30" id="start2" xmlns="http://www.w3.org/2000/svg"><path d="M12.8 0c7.03.028 12.727 5.763 12.7 12.784v.139c-.095 5.017-3.111 9.18-5.624 11.789a30.825 30.825 0 0 1-2.262 2.13 1.118 1.118 0 1 1-1.453-1.7 28.888 28.888 0 0 0 2.1-1.98c2.236-2.32 4.918-5.989 5-10.28.022-5.894-4.674-10.623-10.47-10.647h-.041c-5.777 0-10.488 4.683-10.51 10.456a13.679 13.679 0 0 0 2.789 7.838c2.015 2.683 5.072 5.525 7.978 7.416a1.117 1.117 0 1 1-1.222 1.873c-3.112-2.024-6.386-5.068-8.545-7.942A15.91 15.91 0 0 1 0 12.769C.028 5.679 5.743 0 12.75 0h.05Zm-.054 8.075a4.854 4.854 0 0 1 4.852 4.846 4.854 4.854 0 0 1-4.852 4.845 4.854 4.854 0 0 1-4.852-4.845 1.119 1.119 0 0 1 2.239 0 2.615 2.615 0 0 0 2.613 2.61 2.615 2.615 0 0 0 2.613-2.61 2.616 2.616 0 0 0-2.613-2.61 1.118 1.118 0 1 1 0-2.236Z" fill="#446DF6"/></symbol><symbol fill="none" viewBox="0 0 29 28" id="start3" xmlns="http://www.w3.org/2000/svg"><path d="M23.139 16.491c.402 0 .804.045 1.197.133a1.24 1.24 0 0 1 .949 1.484 1.26 1.26 0 0 1-1.506.935c-1.743-.394-3.487.978-3.487 2.74 0 1.549 1.276 2.81 2.847 2.81 1.569 0 2.846-1.261 2.846-2.81 0-.159-.013-.316-.038-.467a1.244 1.244 0 0 1 1.033-1.43 1.257 1.257 0 0 1 1.446 1.022c.049.284.074.577.074.875 0 2.917-2.406 5.292-5.361 5.292-2.957 0-5.361-2.375-5.361-5.292 0-2.919 2.404-5.292 5.36-5.292Zm-11.572 4.05a1.25 1.25 0 0 1 1.258 1.242 1.25 1.25 0 0 1-1.258 1.24H1.257A1.25 1.25 0 0 1 0 21.784a1.25 1.25 0 0 1 1.257-1.241h10.31ZM5.362 0c2.957 0 5.361 2.373 5.361 5.292 0 2.917-2.404 5.292-5.361 5.292S0 8.209 0 5.292c0-.298.025-.59.073-.875a1.255 1.255 0 0 1 1.447-1.021 1.244 1.244 0 0 1 1.033 1.43c-.025.15-.039.307-.039.466 0 1.549 1.276 2.81 2.847 2.81 1.57 0 2.846-1.261 2.846-2.81 0-1.55-1.275-2.81-2.846-2.81-.215 0-.43.023-.634.07a1.254 1.254 0 0 1-1.51-.927 1.24 1.24 0 0 1 .94-1.49A5.326 5.326 0 0 1 5.362 0Zm21.88 4.05A1.25 1.25 0 0 1 28.5 5.291a1.25 1.25 0 0 1-1.258 1.242H16.934a1.25 1.25 0 0 1-1.257-1.242 1.25 1.25 0 0 1 1.257-1.24h10.308Z" fill="#446DF6"/></symbol><symbol fill="none" viewBox="0 0 30 29" id="start4" xmlns="http://www.w3.org/2000/svg"><path d="M21.321 0C26.107 0 30 3.982 30 8.878v10.744c0 4.896-3.893 8.878-8.679 8.878-.552 0-1-.458-1-1.023s.448-1.023 1-1.023c3.683 0 6.679-3.064 6.679-6.832v-8.575h-4.925c-1.618.002-2.936 1.35-2.938 3.006.002 1.656 1.32 3.004 2.938 3.005h2.046c.552 0 1 .459 1 1.023 0 .565-.448 1.024-1 1.024h-2.046c-2.722-.002-4.936-2.268-4.938-5.052.002-2.785 2.216-5.05 4.938-5.052H28v-.123c0-3.768-2.996-6.832-6.679-6.832H8.677c-2.968 0-5.458 2.003-6.326 4.746h13.181c.552 0 1 .459 1 1.024 0 .566-.448 1.023-1 1.023H2.004L2 8.879v10.743c0 3.768 2.995 6.832 6.677 6.832h6.362c.552 0 1 .458 1 1.023s-.448 1.023-1 1.023H8.677C3.892 28.5 0 24.518 0 19.622V8.878C0 3.982 3.892 0 8.677 0h12.644Zm2.425 12.938c.552 0 1 .458 1 1.023 0 .564-.448 1.023-1 1.023h-.454c-.553 0-1-.459-1-1.023 0-.565.447-1.024 1-1.024h.454Z" fill="#446DF6"/></symbol></svg>