<svg width="27" height="30" viewBox="0 0 27 30" fill="none" xmlns="http://www.w3.org/2000/svg">
<path d="M19.187 0.00138179C19.7551 0.0369162 20.1934 0.523847 20.1783 1.10261V2.65495C24.6913 3.09279 27 5.58715 27 10.0717V22.4771C27 27.4658 24.1565 30 18.5609 30H8.43913C2.84348 30 0 27.4658 0 22.4771V10.0717C0 7.08642 1.01739 4.95029 3.10435 3.70311L3.25074 3.61968C3.55327 3.47848 3.9081 3.49142 4.20302 3.66264C4.54711 3.8624 4.7503 4.24314 4.72754 4.64547C4.70478 5.0478 4.45999 5.40232 4.09565 5.56061C2.71304 6.38322 2.06087 7.81615 2.06087 10.0717V10.4697H21.0913C21.6604 10.4697 22.1217 10.939 22.1217 11.5179C22.1217 12.0968 21.6604 12.566 21.0913 12.566H2.06087V22.4771C2.06087 26.285 3.91304 27.8639 8.43913 27.8904H18.5609C23.0217 27.8904 24.9261 26.2717 24.9261 22.4639V10.0584C24.9261 6.74145 23.4783 5.13604 20.1783 4.75127V5.75963C20.1022 6.29709 19.6395 6.68946 19.1061 6.66898C18.5726 6.6485 18.1404 6.22179 18.1043 5.68002V1.00974L18.1234 0.843835C18.1659 0.626429 18.2754 0.426745 18.4382 0.27512C18.6417 0.0855883 18.9114 -0.0130171 19.187 0.00138179ZM19.7805 21.2955L19.9466 21.3062C20.2314 21.3419 20.4985 21.4725 20.7047 21.6802C20.9521 21.9294 21.0913 22.2689 21.0913 22.6231C21.0913 23.3558 20.5073 23.9499 19.787 23.9499C19.0666 23.9499 18.4826 23.3558 18.4826 22.6231C18.4826 21.8903 19.0666 21.2963 19.787 21.2963L19.7805 21.2955ZM13.5261 21.2963L13.6897 21.3066C14.3328 21.3885 14.8304 21.9467 14.8304 22.6231C14.8304 23.3558 14.2465 23.9499 13.5261 23.9499C12.8057 23.9499 12.2217 23.3558 12.2217 22.6231C12.2217 21.8903 12.8057 21.2963 13.5261 21.2963ZM7.272 21.2955L7.43788 21.3062C7.72268 21.3419 7.98977 21.4725 8.19597 21.6802C8.44341 21.9294 8.58261 22.2689 8.58261 22.6231C8.58261 23.3558 7.99863 23.9499 7.27826 23.9499C6.55789 23.9499 5.97391 23.3558 5.97391 22.6231C5.97391 21.8903 6.55789 21.2963 7.27826 21.2963L7.272 21.2955ZM19.7805 15.9225L19.9466 15.9327C20.2314 15.9684 20.4985 16.099 20.7047 16.3067C20.9521 16.5559 21.0913 16.8954 21.0913 17.2496C21.0913 17.9824 20.5073 18.5764 19.787 18.5764C19.0666 18.5764 18.4826 17.9824 18.4826 17.2496C18.4826 16.5168 19.0666 15.9228 19.787 15.9228L19.7805 15.9225ZM13.5261 15.9228L13.6897 15.9331C14.3328 16.015 14.8304 16.5732 14.8304 17.2496C14.8304 17.9824 14.2465 18.5764 13.5261 18.5764C12.8057 18.5764 12.2217 17.9824 12.2217 17.2496C12.2217 16.5168 12.8057 15.9228 13.5261 15.9228ZM7.272 15.9225L7.43788 15.9327C7.72268 15.9684 7.98977 16.099 8.19597 16.3067C8.44341 16.5559 8.58261 16.8954 8.58261 17.2496C8.58261 17.9824 7.99863 18.5764 7.27826 18.5764C6.55789 18.5764 5.97391 17.9824 5.97391 17.2496C5.97391 16.5168 6.55789 15.9228 7.27826 15.9228L7.272 15.9225ZM7.8587 0.159671C8.38992 0.159671 8.83635 0.565629 8.89565 1.10261V2.54881H14.7913C15.3604 2.54881 15.8217 3.01809 15.8217 3.59697C15.8217 4.17585 15.3604 4.64513 14.7913 4.64513H8.86957V5.69329C8.86959 5.97359 8.75924 6.24223 8.56316 6.43918C8.36709 6.63614 8.10163 6.745 7.82609 6.74145L7.67541 6.7264C7.18446 6.64012 6.81508 6.20168 6.82165 5.68002V1.10261L6.85078 0.945724C6.97117 0.488497 7.38059 0.159671 7.8587 0.159671Z" fill="#446DF6"/>
</svg>
