<svg width="30" height="30" viewBox="0 0 30 30" fill="none" xmlns="http://www.w3.org/2000/svg">
<path d="M23.2466 29.8791C23.0621 29.8836 22.8791 29.8371 22.7186 29.7441L15.0116 25.6851L8.22562 29.3391C7.11862 29.9391 5.73262 29.5281 5.13262 28.4196C5.12512 28.4061 5.11762 28.3926 5.11012 28.3776C4.87462 27.9141 4.79212 27.3906 4.87312 26.8776L6.19312 19.0866L0.676125 13.5006C-0.225375 12.5706 -0.225375 11.0916 0.676125 10.1601C1.02712 9.79107 1.49212 9.55257 1.99612 9.48357L9.56062 8.33457L12.9251 1.32507C13.4486 0.185067 14.7971 -0.315933 15.9386 0.207567C16.4336 0.434067 16.8296 0.831567 17.0561 1.32507L20.4356 8.35857L28.0256 9.52107C28.6391 9.61257 29.1896 9.95157 29.5496 10.4571C30.2216 11.4231 30.1196 12.7281 29.3066 13.5786L23.8151 19.0986L24.5801 23.2971C24.6866 23.9271 24.2711 24.5286 23.6426 24.6471C23.0246 24.7581 22.4336 24.3471 22.3226 23.7276L21.5441 19.5291C21.4136 18.7596 21.6581 17.9736 22.2041 17.4171L27.7091 11.8581L20.1191 10.6806C19.3496 10.5561 18.6971 10.0461 18.3896 9.33057L15.0116 2.32707L11.5916 9.44157C11.2841 10.1586 10.6316 10.6671 9.86212 10.7916L2.29762 11.9406L7.76212 17.4906C8.30662 18.0381 8.55112 18.8136 8.42212 19.5741L7.10212 27.3651L13.8866 23.7261C14.5586 23.3481 15.3791 23.3481 16.0511 23.7261L23.7476 27.7851C24.2171 28.0416 24.4556 28.5831 24.3281 29.1036C24.2111 29.6241 23.7521 29.9946 23.2196 30.0036L23.2466 29.8791Z" fill="#446DF6"/>
</svg>
