<svg width="30" height="29" viewBox="0 0 30 29" fill="none" xmlns="http://www.w3.org/2000/svg">
<path d="M21.3213 0C26.1067 0 30 3.98217 30 8.87837V19.6216C30 24.5178 26.1067 28.5 21.3213 28.5C20.7693 28.5 20.3213 28.0416 20.3213 27.4768C20.3213 26.912 20.7693 26.4537 21.3213 26.4537C25.004 26.4537 28 23.3896 28 19.6216V11.0475H23.0747C21.4573 11.0488 20.1387 12.3967 20.1373 14.0529C20.1387 15.709 21.4573 17.0569 23.0747 17.0583H25.1213C25.6733 17.0583 26.1213 17.5166 26.1213 18.0814C26.1213 18.6462 25.6733 19.1046 25.1213 19.1046H23.0747C20.3533 19.1032 18.1387 16.8373 18.1373 14.0529C18.1387 11.2685 20.3533 9.00251 23.0747 9.00115H28V8.87837C28 5.11038 25.004 2.04634 21.3213 2.04634H8.67733C5.70933 2.04634 3.21867 4.04902 2.35067 6.79247H15.532C16.084 6.79247 16.532 7.25085 16.532 7.81564C16.532 8.38179 16.084 8.83881 15.532 8.83881H2.004L2 8.87837V19.6216C2 23.3896 4.99467 26.4537 8.67733 26.4537H15.0387C15.5907 26.4537 16.0387 26.912 16.0387 27.4768C16.0387 28.0416 15.5907 28.5 15.0387 28.5H8.67733C3.892 28.5 0 24.5178 0 19.6216V8.87837C0 3.98217 3.892 0 8.67733 0H21.3213ZM23.7461 12.9375C24.2981 12.9375 24.7461 13.3959 24.7461 13.9606C24.7461 14.5254 24.2981 14.9838 23.7461 14.9838H23.2915C22.7395 14.9838 22.2915 14.5254 22.2915 13.9606C22.2915 13.3959 22.7395 12.9375 23.2915 12.9375H23.7461Z" fill="#446DF6"/>
</svg>
