<svg width="30" height="29" viewBox="0 0 30 29" fill="none" xmlns="http://www.w3.org/2000/svg">
<path d="M23.3296 7.04689C27.0075 7.04689 30 10.1577 30 13.9812V21.5813C30 25.3954 27.015 28.5 23.3446 28.5H11.9237C11.2862 28.5 10.7702 27.9605 10.7702 27.2993C10.7702 26.6351 11.2862 26.0971 11.9237 26.0971H23.3446C25.74 26.0971 27.69 24.0715 27.69 21.5813V13.9812C27.69 11.4816 25.734 9.44824 23.3296 9.44824H21.9331C21.2956 9.44824 20.7796 8.91183 20.7796 8.24756C20.7796 7.58485 21.2956 7.04689 21.9331 7.04689H23.3296ZM8.06692 7.04767C8.70441 7.04767 9.22191 7.58563 9.22191 8.24834C9.22191 8.91105 8.70441 9.44902 8.06692 9.44902H6.65543C4.25996 9.44902 2.30998 11.4761 2.30998 13.9648V21.5649C2.30998 24.0645 4.26596 26.0979 6.67043 26.0979C7.30793 26.0979 7.82542 26.6358 7.82542 27.2985C7.82542 27.9613 7.30793 28.4992 6.67043 28.4992C2.99247 28.4992 0 25.3884 0 21.5649L0 13.9648C0 10.1507 2.98497 7.04767 6.65543 7.04767H8.06692ZM14.9997 0C15.6372 0 16.1562 0.51496 16.1562 1.14933V19.0819C16.1562 19.5476 15.8742 19.967 15.4407 20.1446C15.0087 20.3222 14.5107 20.2222 14.1807 19.8939L9.81875 15.5324C9.59525 15.3085 9.48276 15.0144 9.48276 14.7204C9.48276 14.4263 9.59525 14.1308 9.82175 13.9069C10.2747 13.4591 11.0052 13.4606 11.4552 13.9099L13.8447 16.2981V1.14933C13.8447 0.51496 14.3622 0 14.9997 0ZM18.5418 13.9126C18.9903 13.4618 19.7208 13.4573 20.1752 13.9036C20.6297 14.3484 20.6327 15.0753 20.1842 15.5291L19.0923 16.6292C18.6453 17.0799 17.9133 17.0844 17.4603 16.6366C17.2308 16.4127 17.1168 16.1172 17.1168 15.8202C17.1168 15.5291 17.2278 15.2365 17.4513 15.0111L18.5418 13.9126Z" fill="#446DF6"/>
</svg>
