<svg width="26" height="30" viewBox="0 0 26 30" fill="none" xmlns="http://www.w3.org/2000/svg">
<path d="M12.8 0C19.8295 0.0276243 25.5275 5.76296 25.4999 12.7835V12.9229C25.405 17.94 22.3887 22.1034 19.8756 24.7119C19.1604 25.4578 18.3991 26.1734 17.6141 26.8416C17.1439 27.2428 16.4379 27.1876 16.0362 26.718C15.6344 26.247 15.6911 25.542 16.1613 25.1408C16.8883 24.5212 17.5957 23.8556 18.2608 23.1623C20.4973 20.8419 23.179 17.1731 23.2607 12.8821C23.2831 6.98763 18.5875 2.25862 12.7907 2.23494H12.7499C6.97293 2.23494 2.26153 6.91792 2.23914 12.6914C2.33792 15.5433 3.30207 18.2544 5.02883 20.5288C7.04406 23.2123 10.1011 26.0537 13.0067 27.9453C13.5257 28.282 13.6719 28.974 13.3334 29.4922C13.12 29.8211 12.7604 30 12.3943 30C12.1848 30 11.9741 29.9421 11.7844 29.8185C8.67336 27.794 5.39895 24.7501 3.24016 21.8758C1.23679 19.2357 0.115908 16.0852 0 12.769C0.0276599 5.67877 5.74272 0 12.7499 0H12.8ZM12.7459 8.07511C15.4211 8.07511 17.5983 10.2482 17.5983 12.9212C17.5983 15.5929 15.4211 17.766 12.7459 17.766C10.0708 17.766 7.89361 15.5929 7.89361 12.9212C7.89361 12.3029 8.39544 11.8031 9.01318 11.8031C9.63092 11.8031 10.1327 12.3029 10.1327 12.9212C10.1327 14.359 11.305 15.531 12.7459 15.531C14.1869 15.531 15.3592 14.359 15.3592 12.9212C15.3592 11.4821 14.1869 10.3101 12.7459 10.3101C12.1282 10.3101 11.6264 9.81018 11.6264 9.19324C11.6264 8.57498 12.1282 8.07511 12.7459 8.07511Z" fill="#446DF6"/>
</svg>
